# xmcd
#
# Track frame offsets: 
#        150
#        14113
#        31659
#        50530
#        63755
#        84308
#        101168
#        118934
#        132680
#        148830
#        165457
#        179149
#        195188
#        210219
#        226173
#        243120
#        258176
#        275418
#        287679
#        303110
#
# Disc length: 4277 seconds
#
# Revision: 1
# Processed by: cddbd v1.5.2PL0 Copyright (c) Steve Scherf et al.
# Submitted via: ExactAudioCopyFreeDBPlugin 1.0
#
DISCID=1410b314
DTITLE=Various Artist - 2014 - After The Storm
DYEAR=2014
DGENRE=Country
TTITLE0=The Common Linnets - Calm After The Storm
TTITLE1=Lady Antebellum - Need You Now
TTITLE2=John Mayer and Katy Perry - Who You Love
TTITLE3=Johnny Cash and June Carter - The Pine Tree
TTITLE4=Brad Praisley and Carrie Underwood - Remind Me
TTITLE5=The Band Perry - If I Die Young
TTITLE6=Shania Twain and Bryan White - From This Moment On
TTITLE7=Ilse DeLange - When We Don't Talk
TTITLE8=Linda Ronstadt and Aaron Neville - Don't Know Much
TTITLE9=Emmylou Harris and Gram Parsons - Love Hurts
TTITLE10=Norah Jones Ft. Dolly Parton - Creepin' In
TTITLE11=Robert Plant and Alison Krauss - Gone, Gone, Gone
TTITLE12=Kris Kristofferson and Rita Coolidge - We Must Have Been Out Of
TTITLE12=Our Minds
TTITLE13=Vince Gill and Rosanne Cash - If It Weren't For Him
TTITLE14=High South - The Best Is Yet To Come
TTITLE15=Darius Rucker and Sheryl Crow - Love Without You
TTITLE16=Kenny Rogers and Sheena Easton - We've Got Tonight
TTITLE17=George Jones and Tammy Wynette - Cryin' Time
TTITLE18=Lyle Lovett and Sara Watkins - Night's Lullaby
TTITLE19=Willie Nelson and Carrie Underwood - Always On My Mind
EXTD=
EXTT0=
EXTT1=
EXTT2=
EXTT3=
EXTT4=
EXTT5=
EXTT6=
EXTT7=
EXTT8=
EXTT9=
EXTT10=
EXTT11=
EXTT12=
EXTT13=
EXTT14=
EXTT15=
EXTT16=
EXTT17=
EXTT18=
EXTT19=
PLAYORDER=
